<?xml version="1.0" encoding="iso-8859-1"?>
<!-- Generator: Adobe Illustrator 19.0.0, SVG Export Plug-In . SVG Version: 6.00 Build 0)  -->
<svg version="1.1" id="Layer_1" xmlns="http://www.w3.org/2000/svg" xmlns:xlink="http://www.w3.org/1999/xlink" x="0px" y="0px"
	 viewBox="0 0 307 307" style="enable-background:new 0 0 307 307;" xml:space="preserve">
<g>
	<g>
		<g>
			<path d="M272.132,0H34.868C15.642,0,0,15.642,0,34.868v237.264C0,291.358,15.642,307,34.868,307h237.264
				C291.358,307,307,291.358,307,272.132V34.868C307,15.642,291.358,0,272.132,0z M292,272.132c0,10.955-8.913,19.868-19.868,19.868
				H34.868C23.913,292,15,283.087,15,272.132V34.868C15,23.913,23.913,15,34.868,15h237.264C283.087,15,292,23.913,292,34.868
				V272.132z"/>
			<path d="M248.887,50.613H58.113c-4.142,0-7.5,3.357-7.5,7.5v190.773c0,4.1,3.345,7.5,7.5,7.5h59.276h131.498
				c4.072,0,7.5-3.318,7.5-7.5V58.113C256.387,53.971,253.029,50.613,248.887,50.613z M113.097,241.323
				c-0.008,0.013-0.018,0.032-0.037,0.064H71.103l29.157-50.5l20.978,36.335C114.569,238.774,113.29,240.988,113.097,241.323z
				 M130.38,241.387l6.013-10.415c0.001-0.002,0.002-0.004,0.003-0.006l46.742-80.959l52.759,91.38H130.38z M241.387,220.896
				l-51.754-89.64c-1.34-2.32-3.815-3.75-6.495-3.75s-5.155,1.43-6.495,3.75l-46.745,80.965l-23.143-40.085
				c-1.34-2.32-3.815-3.75-6.495-3.75s-5.155,1.43-6.495,3.75l-28.151,48.76V65.613h175.773V220.896z"/>
			<path d="M113.069,241.371C113.065,241.377,113.066,241.377,113.069,241.371L113.069,241.371z"/>
			<path d="M113.069,241.371c0.004-0.007,0.012-0.021,0.027-0.047C113.13,241.265,113.083,241.347,113.069,241.371z"/>
			<path d="M141.82,143.48c13.259,0,24.046-10.787,24.046-24.047s-10.787-24.047-24.046-24.047
				c-13.259,0-24.046,10.787-24.046,24.047S128.56,143.48,141.82,143.48z M141.82,110.387c4.988,0,9.046,4.059,9.046,9.047
				c0,4.988-4.058,9.047-9.046,9.047c-4.988,0-9.046-4.059-9.046-9.047C132.773,114.445,136.831,110.387,141.82,110.387z"/>
		</g>
	</g>
</g>
<g>
</g>
<g>
</g>
<g>
</g>
<g>
</g>
<g>
</g>
<g>
</g>
<g>
</g>
<g>
</g>
<g>
</g>
<g>
</g>
<g>
</g>
<g>
</g>
<g>
</g>
<g>
</g>
<g>
</g>
</svg>
